<?xml version="1.0" encoding="utf-8"?>
<!-- Uploaded to: SVG Repo, www.svgrepo.com, Generator: SVG Repo Mixer Tools -->
<svg width="800px" height="800px" viewBox="0 0 1024 1024" class="icon"  version="1.1" xmlns="http://www.w3.org/2000/svg"><path d="M640 960H384s-106.666667-256-106.666667-480c0-74.666667 21.333333-117.333333 117.333334-117.333333h234.666666c96 0 117.333333 42.666667 117.333334 117.333333C746.666667 704 640 960 640 960z" fill="#90CAF9" /><path d="M469.333333 320h85.333334v277.333333h-85.333334z" fill="#42A5F5" /><path d="M618.624 896c24.789333-69.269333 67.882667-204.330667 81.216-338.752-50.325333 32.426667-132.629333 16.618667-184.277333-1.92-30.442667-10.922667-56.746667-27.541333-88.917334-35.946667-16.576-4.330667-32.746667-12.309333-49.813333-16.042666-17.642667-3.861333-37.546667-2.069333-56.213333 1.578666 5.333333 150.677333 56.746667 312.874667 84.778666 391.061334h213.226667z" fill="#EEEEEE" /><path d="M554.666667 320h-85.333334V64l85.333334 85.333333z" fill="#3F51B5" /><path d="M704 330.666667a32 32 0 0 1-32 32h-320a32 32 0 0 1-32-32v-42.666667a32 32 0 0 1 32-32h320a32 32 0 0 1 32 32v42.666667z" fill="#1976D2" /><path d="M405.333333 682.666667m-21.333333 0a21.333333 21.333333 0 1 0 42.666667 0 21.333333 21.333333 0 1 0-42.666667 0Z" fill="#90A4AE" /><path d="M448 618.666667m-21.333333 0a21.333333 21.333333 0 1 0 42.666666 0 21.333333 21.333333 0 1 0-42.666666 0Z" fill="#90A4AE" /><path d="M490.666667 682.666667m-21.333334 0a21.333333 21.333333 0 1 0 42.666667 0 21.333333 21.333333 0 1 0-42.666667 0Z" fill="#90A4AE" /></svg>